<svg width="15" height="15" viewBox="0 0 15 15" fill="none" xmlns="http://www.w3.org/2000/svg">
<g opacity="0.9" clip-path="url(#clip0_696_187)">
<mask id="path-1-inside-1_696_187" fill="white">
<path d="M13.5333 13.2123H1.4C0.625333 13.2123 0 12.5813 0 11.7996V3.32362C0 2.54194 0.625333 1.91095 1.4 1.91095H13.5333C14.308 1.91095 14.9333 2.54194 14.9333 3.32362V11.7996C14.9333 12.5813 14.308 13.2123 13.5333 13.2123ZM1.4 2.85273C1.13867 2.85273 0.933333 3.05992 0.933333 3.32362V11.7996C0.933333 12.0633 1.13867 12.2705 1.4 12.2705H13.5333C13.7947 12.2705 14 12.0633 14 11.7996V3.32362C14 3.05992 13.7947 2.85273 13.5333 2.85273H1.4Z"/>
</mask>
<path d="M13.5333 11.7123H1.4V14.7123H13.5333V11.7123ZM1.4 11.7123C1.46647 11.7123 1.5 11.7657 1.5 11.7996H-1.5C-1.5 13.397 -0.215807 14.7123 1.4 14.7123V11.7123ZM1.5 11.7996V3.32362H-1.5V11.7996H1.5ZM1.5 3.32362C1.5 3.3576 1.46647 3.41095 1.4 3.41095V0.41095C-0.215807 0.41095 -1.5 1.72629 -1.5 3.32362H1.5ZM1.4 3.41095H13.5333V0.41095H1.4V3.41095ZM13.5333 3.41095C13.4669 3.41095 13.4333 3.3576 13.4333 3.32362H16.4333C16.4333 1.72629 15.1491 0.41095 13.5333 0.41095V3.41095ZM13.4333 3.32362V11.7996H16.4333V3.32362H13.4333ZM13.4333 11.7996C13.4333 11.7657 13.4669 11.7123 13.5333 11.7123V14.7123C15.1491 14.7123 16.4333 13.397 16.4333 11.7996H13.4333ZM1.4 1.35273C0.297526 1.35273 -0.566667 2.24427 -0.566667 3.32362H2.43333C2.43333 3.87558 1.97981 4.35273 1.4 4.35273V1.35273ZM-0.566667 3.32362V11.7996H2.43333V3.32362H-0.566667ZM-0.566667 11.7996C-0.566667 12.879 0.297526 13.7705 1.4 13.7705V10.7705C1.97981 10.7705 2.43333 11.2477 2.43333 11.7996H-0.566667ZM1.4 13.7705H13.5333V10.7705H1.4V13.7705ZM13.5333 13.7705C14.6358 13.7705 15.5 12.879 15.5 11.7996H12.5C12.5 11.2477 12.9535 10.7705 13.5333 10.7705V13.7705ZM15.5 11.7996V3.32362H12.5V11.7996H15.5ZM15.5 3.32362C15.5 2.24427 14.6358 1.35273 13.5333 1.35273V4.35273C12.9535 4.35273 12.5 3.87558 12.5 3.32362H15.5ZM13.5333 1.35273H1.4V4.35273H13.5333V1.35273Z" fill="#C5A059" mask="url(#path-1-inside-1_696_187)"/>
<mask id="path-3-inside-2_696_187" fill="white">
<path d="M7.46627 9.40754C6.81294 9.40754 6.2156 9.14384 5.7676 8.66353L0.867603 3.40839C0.69027 3.22004 0.699603 2.91867 0.88627 2.73973C1.07294 2.56079 1.3716 2.57021 1.54894 2.75856L6.44894 8.0137C6.98094 8.58819 7.9516 8.58819 8.4836 8.0137L13.3836 2.76798C13.5609 2.57962 13.8596 2.57021 14.0463 2.74915C14.2329 2.92808 14.2423 3.22945 14.0649 3.41781L9.16494 8.67295C8.71694 9.15325 8.1196 9.41695 7.46627 9.41695V9.40754Z"/>
</mask>
<path d="M7.46627 9.40754H8.96627V7.90754H7.46627V9.40754ZM5.7676 8.66353L4.67052 9.68647L4.67069 9.68666L5.7676 8.66353ZM0.867603 3.40839L1.9647 2.38544L1.95974 2.38017L0.867603 3.40839ZM1.54894 2.75856L2.64603 1.73561L2.64107 1.73034L1.54894 2.75856ZM6.44894 8.0137L7.54952 6.99451L7.54602 6.99076L6.44894 8.0137ZM8.4836 8.0137L7.38743 6.98977L7.38303 6.99452L8.4836 8.0137ZM13.3836 2.76798L12.2915 1.73975L12.2874 1.74406L13.3836 2.76798ZM14.0649 3.41781L12.9728 2.38958L12.9679 2.39487L14.0649 3.41781ZM9.16494 8.67295L10.2618 9.69607L10.262 9.69589L9.16494 8.67295ZM7.46627 9.41695H5.96627V10.917H7.46627V9.41695ZM7.46627 7.90754C7.23645 7.90754 7.03402 7.82213 6.86451 7.6404L4.67069 9.68666C5.39719 10.4655 6.38942 10.9075 7.46627 10.9075V7.90754ZM6.86469 7.64059L1.96468 2.38545L-0.229479 4.43133L4.67052 9.68647L6.86469 7.64059ZM1.95974 2.38017C2.35288 2.79774 2.32528 3.43816 1.92428 3.82257L-0.151738 1.65689C-0.926077 2.39917 -0.972337 3.64233 -0.224532 4.43661L1.95974 2.38017ZM1.92428 3.82257C1.50143 4.22791 0.843645 4.19767 0.456801 3.78679L2.64107 1.73034C1.89956 0.942739 0.644444 0.89367 -0.151738 1.65689L1.92428 3.82257ZM0.451854 3.78151L5.35185 9.03664L7.54602 6.99076L2.64602 1.73562L0.451854 3.78151ZM5.34836 9.03288C6.47404 10.2485 8.4585 10.2485 9.58418 9.03288L7.38303 6.99452C7.40596 6.96976 7.42927 6.95629 7.44417 6.95015C7.45756 6.94463 7.46464 6.94456 7.46627 6.94456C7.46791 6.94456 7.47498 6.94463 7.48837 6.95015C7.50327 6.95629 7.52659 6.96976 7.54951 6.99452L5.34836 9.03288ZM9.57977 9.03762L14.4798 3.7919L12.2874 1.74406L7.38744 6.98978L9.57977 9.03762ZM14.4757 3.7962C14.0889 4.20709 13.4311 4.23733 13.0083 3.83198L15.0843 1.66631C14.2881 0.903088 13.033 0.952157 12.2915 1.73976L14.4757 3.7962ZM13.0083 3.83198C12.6073 3.44758 12.5797 2.80716 12.9728 2.38959L15.1571 4.44603C15.9049 3.65175 15.8586 2.40859 15.0843 1.66631L13.0083 3.83198ZM12.9679 2.39487L8.06785 7.65L10.262 9.69589L15.162 4.44075L12.9679 2.39487ZM8.06803 7.64982C7.89852 7.83155 7.69609 7.91695 7.46627 7.91695V10.917C8.54312 10.917 9.53535 10.475 10.2618 9.69607L8.06803 7.64982ZM8.96627 9.41695V9.40754H5.96627V9.41695H8.96627Z" fill="#C5A059" mask="url(#path-3-inside-2_696_187)"/>
</g>
<defs>
<clipPath id="clip0_696_187">
<rect width="14.9333" height="13.1849" fill="white" transform="translate(0 0.969055)"/>
</clipPath>
</defs>
</svg>
