<svg width="16" height="17" viewBox="0 0 16 17" fill="none" xmlns="http://www.w3.org/2000/svg">
<g clip-path="url(#clip0_696_192)">
<path d="M12.9656 6.76781C12.9656 9.34415 7.89161 15.5626 7.89161 15.5626C7.89161 15.5626 2.81763 9.34415 2.81763 6.76781C2.81763 5.53294 3.35221 4.34866 4.30376 3.47548C5.25532 2.6023 6.5459 2.11176 7.89161 2.11176C9.23731 2.11176 10.5279 2.6023 11.4795 3.47548C12.431 4.34866 12.9656 5.53294 12.9656 6.76781Z" stroke="#C5A059" stroke-width="1.3" stroke-linecap="round" stroke-linejoin="round"/>
<path d="M7.89103 8.31991C8.82513 8.31991 9.58236 7.62505 9.58236 6.7679C9.58236 5.91074 8.82513 5.21588 7.89103 5.21588C6.95694 5.21588 6.19971 5.91074 6.19971 6.7679C6.19971 7.62505 6.95694 8.31991 7.89103 8.31991Z" stroke="#C5A059" stroke-width="1.3" stroke-linecap="round" stroke-linejoin="round"/>
</g>
<defs>
<clipPath id="clip0_696_192">
<rect width="15.7857" height="16.0103" fill="white" transform="translate(0 0.832153)"/>
</clipPath>
</defs>
</svg>
